<svg width="200" height="200" xmlns="http://www.w3.org/2000/svg">
    <defs>
        <linearGradient y2=".5" y1=".5" x2="-.976" x1="1" id="b">
            <stop offset="0" stop-color="#ffc836"/>
            <stop offset="1" stop-color="#ffe873"/>
        </linearGradient>
        <linearGradient y2=".381" y1=".389" x2="0" x1="1" id="a">
            <stop offset="0" stop-color="#366a96"/>
            <stop offset="1" stop-color="#3679b0"/>
        </linearGradient>
    </defs>
    <g stroke-width="0">
        <path fill="url(#a)" d="M52.217 27.54c0-13.622 3.653-21.033 23.822-24.562 13.693-2.4 31.25-2.7 47.627 0 12.935 2.135 23.822 11.77 23.822 24.563v44.945c0 13.182-10.57 23.98-23.822 23.98H76.039c-16.164 0-29.787 13.783-29.787 29.364v21.564H29.876c-13.852 0-21.917-9.988-25.305-23.964C0 104.654.195 93.467 4.57 75.485 8.365 59.798 20.488 51.52 34.34 51.52h65.52v-6H52.217V27.54z"/>
        <path fill="url(#b)" d="M147.487 171.373c0 13.623-11.823 20.523-23.822 23.964-18.052 5.188-32.54 4.394-47.627 0-12.6-3.67-23.822-11.17-23.822-23.964v-44.945c0-12.935 10.782-23.981 23.822-23.981h47.627c15.864 0 29.787-13.711 29.787-29.963V51.52h17.858c13.87 0 20.399 10.305 23.822 23.964 4.764 18.97 4.976 33.157 0 47.945-4.817 14.364-9.97 23.964-23.822 23.964H99.86v6h47.628v17.98h-.001z"/>
        <path fill="#fff" d="M64.129 24.559c0-4.976 3.988-9 8.929-9 4.923 0 8.929 4.023 8.929 9 0 4.959-4.006 8.982-8.93 8.982-4.94 0-8.928-4.023-8.928-8.982zm53.588 149.794c0-4.96 4.006-8.982 8.929-8.982 4.94 0 8.929 4.023 8.929 8.982 0 4.976-3.988 9-8.93 9-4.922 0-8.928-4.023-8.928-9z"/>
    </g>
</svg>
